<svg xmlns="http://www.w3.org/2000/svg">
    <symbol id="facebook" viewBox="0 0 18 17" >
        <g>
            <path d="M2.53018 16.776H8.16405V10.8126H6.13991V8.8467H8.16405V6.38928C8.16405 5.03425 9.29908 3.93187 10.6942 3.93187H13.2244V5.8978H11.2003C10.6422 5.8978 10.1882 6.33873 10.1882 6.88076V8.8467H13.1331L12.7957 10.8126H10.1882V16.776H14.7425C16.1377 16.776 17.2727 15.6736 17.2727 14.3185V2.45742C17.2727 1.10238 16.1377 0 14.7425 0H2.53018C1.13502 0 0 1.10238 0 2.45742V14.3185C0 15.6736 1.13502 16.776 2.53018 16.776ZM1.01207 2.45742C1.01207 1.64442 1.69311 0.982966 2.53018 0.982966H14.7425C15.5796 0.982966 16.2606 1.64442 16.2606 2.45742V14.3185C16.2606 15.1315 15.5796 15.793 14.7425 15.793H11.2003V11.7956H13.6531L14.3278 7.86373H11.2003V6.88076H14.2365V2.9489H10.6942C8.74099 2.9489 7.15198 4.49221 7.15198 6.38928V7.86373H5.12783V11.7956H7.15198V15.793H2.53018C1.69311 15.793 1.01207 15.1315 1.01207 14.3185V2.45742Z" />
        </g>
    </symbol>
    
    <symbol id="insta"  viewBox="0 0 18 17" >
        <g>
            <path d="M2.53018 16.776H14.7425C16.1377 16.776 17.2727 15.6736 17.2727 14.3185V2.45742C17.2727 1.10238 16.1377 0 14.7425 0H2.53018C1.13502 0 0 1.10238 0 2.45742V14.3185C0 15.6736 1.13502 16.776 2.53018 16.776ZM1.01207 2.45742C1.01207 1.64442 1.69311 0.982966 2.53018 0.982966H14.7425C15.5796 0.982966 16.2606 1.64442 16.2606 2.45742V14.3185C16.2606 15.1315 15.5796 15.793 14.7425 15.793H2.53018C1.69311 15.793 1.01207 15.1315 1.01207 14.3185V2.45742Z" />
            <path d="M8.63635 12.8113C11.1476 12.8113 13.1907 10.827 13.1907 8.38798C13.1907 5.94899 11.1476 3.96463 8.63635 3.96463C6.12515 3.96463 4.08203 5.94899 4.08203 8.38798C4.08203 10.827 6.12515 12.8113 8.63635 12.8113ZM8.63635 4.9476C10.5896 4.9476 12.1786 6.49091 12.1786 8.38798C12.1786 10.2851 10.5896 11.8284 8.63635 11.8284C6.68311 11.8284 5.0941 10.2851 5.0941 8.38798C5.0941 6.49091 6.68311 4.9476 8.63635 4.9476Z" />
            <path d="M13.4092 4.70905C14.2363 4.70905 14.9092 4.05548 14.9092 3.25218C14.9092 2.44888 14.2363 1.79532 13.4092 1.79532C12.5821 1.79532 11.9092 2.44888 11.9092 3.25218C11.9092 4.05548 12.5821 4.70905 13.4092 4.70905ZM13.4092 2.76656C13.6848 2.76656 13.9092 2.98446 13.9092 3.25218C13.9092 3.51991 13.6848 3.7378 13.4092 3.7378C13.1335 3.7378 12.9092 3.51991 12.9092 3.25218C12.9092 2.98446 13.1335 2.76656 13.4092 2.76656Z" />
        </g>
    </symbol>

    <symbol id="twitter" viewBox="0 0 18 14" >
        <g> 
            <path d="M17.2727 1.83371C16.1862 1.88234 16.2099 1.87837 16.0871 1.88836L16.7306 0.103532C16.7306 0.103532 14.722 0.821174 14.2128 0.949548C12.8755 -0.217852 10.8877 -0.269432 9.46657 0.578888C8.30282 1.27375 7.67818 2.467 7.88652 3.86171C5.62162 3.55646 3.7133 2.51372 2.20666 0.755899L1.73014 0.200037L1.37407 0.835125C0.924043 1.63762 0.774605 2.55519 0.953167 3.41874C1.02644 3.77302 1.15097 4.11091 1.32347 4.4273L0.914687 4.27346L0.866192 4.93683C0.817038 5.6107 1.04805 6.39733 1.48424 7.04086C1.60706 7.2221 1.7652 7.42112 1.96563 7.61746L1.75439 7.58598L2.01215 8.34611C2.35096 9.34482 3.05467 10.1175 3.9679 10.547C3.05585 10.9229 2.31907 11.1628 1.10801 11.5497L0 11.9035L1.02341 12.4469C1.41361 12.6541 2.79242 13.3462 4.15477 13.5538C7.18308 14.0151 10.5926 13.6394 12.888 11.6316C14.8213 9.94049 15.4557 7.53491 15.3239 5.03154C15.304 4.65257 15.4109 4.29086 15.6249 4.01325C16.0536 3.45739 17.2701 1.83742 17.2727 1.83371ZM14.8157 3.4245C14.4602 3.88539 14.2822 4.47402 14.3141 5.08172C14.4471 7.60684 13.7397 9.56509 12.2114 10.9018C10.4262 12.4634 7.54666 13.0764 4.31146 12.5835C3.72556 12.4943 3.12003 12.2945 2.61887 12.0949C3.63424 11.7556 4.41833 11.4532 5.68461 10.8711L7.45231 10.0585L5.50064 9.93716C4.56579 9.87905 3.78737 9.43902 3.30887 8.72458C3.56294 8.71024 3.80792 8.67031 4.05185 8.60427L5.91324 8.10075L4.0363 7.65432C3.12425 7.43738 2.60437 6.90737 2.32882 6.50087C2.14789 6.23376 2.02968 5.96011 1.95878 5.70785C2.14696 5.75687 2.36638 5.79181 2.72021 5.82585L4.45747 5.99275L3.08102 4.94989C2.08924 4.19858 1.6918 3.06984 1.98316 1.98473C5.07842 5.10283 8.71265 4.86848 9.07847 4.95091C8.99796 4.19129 8.99585 4.1895 8.97476 4.11718C8.50628 2.50873 9.53299 1.69202 9.99606 1.41556C10.9633 0.838197 12.4987 0.751163 13.5622 1.70239C13.7919 1.90768 14.1025 1.98845 14.3932 1.91831C14.6541 1.85534 14.8682 1.78865 15.0779 1.71608L14.6414 2.92661L15.1986 2.927C15.0935 3.06395 14.9673 3.2279 14.8157 3.4245Z"/>
        </g>
    </symbol>
</svg>